<?xml version="1.0" standalone="no"?>
<!DOCTYPE svg PUBLIC "-//W3C//DTD SVG 20010904//EN"
 "http://www.w3.org/TR/2001/REC-SVG-20010904/DTD/svg10.dtd">
<svg version="1.0" xmlns="http://www.w3.org/2000/svg"
 width="500.000000pt" height="500.000000pt" viewBox="0 0 500.000000 500.000000"
 preserveAspectRatio="xMidYMid meet">

<g transform="translate(0.000000,500.000000) scale(0.100000,-0.100000)"
fill="#000000" stroke="none">
<path d="M4504 3884 c-161 -97 -433 -304 -620 -472 -122 -110 -361 -374 -549
-606 -81 -100 -138 -168 -167 -199 -16 -16 -28 -32 -28 -35 0 -4 -21 -30 -46
-57 -25 -28 -53 -61 -62 -75 -9 -14 -37 -52 -63 -85 -40 -51 -119 -192 -205
-366 -96 -195 -127 -332 -100 -451 19 -84 20 -115 4 -120 -8 -3 -5 -19 11 -51
13 -26 27 -73 32 -104 5 -32 11 -66 12 -75 5 -27 12 -29 43 -13 16 8 44 15 62
15 54 0 161 -42 201 -79 81 -75 102 -83 193 -79 88 4 125 17 193 68 22 16 49
29 61 30 11 0 32 13 47 28 27 28 36 49 17 37 -5 -3 -10 -1 -10 4 0 6 9 11 20
11 25 0 54 64 45 100 -19 78 -7 125 39 155 13 9 27 28 31 43 9 36 47 92 63 92
7 0 16 9 20 19 4 11 24 32 44 48 48 39 76 74 126 157 36 60 42 78 42 125 0 31
-6 68 -14 83 -13 25 -12 28 25 64 22 21 37 44 35 50 -5 12 28 44 44 44 6 0 10
6 10 14 0 8 -21 21 -50 31 -52 17 -58 34 -12 36 l27 1 -25 8 c-24 8 -24 8 -2
9 23 1 32 20 10 22 -7 0 10 6 37 12 40 10 51 17 53 35 3 17 -2 22 -17 22 -26
0 -27 17 -2 25 22 7 33 29 25 50 -4 10 -13 13 -25 10 -14 -5 -17 -2 -13 9 5
12 0 16 -20 16 -14 0 -26 5 -26 10 0 6 34 46 75 90 134 143 235 316 235 401 0
39 -4 50 -21 60 -12 6 -30 9 -40 6 -32 -8 -22 12 49 101 37 46 86 108 109 137
54 69 73 107 73 148 0 41 -18 58 -66 66 l-36 6 67 80 c109 131 154 219 155
303 0 34 -45 29 -116 -14z"/>
<path d="M354 3714 c-12 -30 -13 -45 -3 -92 14 -68 52 -160 94 -227 l31 -50
-27 -23 c-41 -34 -46 -76 -16 -150 14 -34 43 -88 64 -119 91 -136 91 -138 61
-171 -34 -37 -37 -50 -26 -111 15 -86 77 -199 161 -298 l29 -33 -28 -23 c-24
-21 -27 -31 -27 -83 0 -70 11 -94 101 -221 l65 -93 44 0 44 0 -6 -43 c-5 -33
-3 -46 9 -56 9 -8 16 -21 16 -31 0 -9 12 -30 26 -46 15 -15 38 -52 51 -82 15
-33 34 -59 53 -70 22 -13 30 -26 35 -57 7 -46 54 -165 65 -165 4 0 33 -19 65
-43 41 -30 65 -58 85 -98 50 -99 256 -279 319 -279 14 0 42 -5 62 -10 51 -14
77 -2 154 72 63 60 98 79 170 92 21 4 35 13 35 21 0 8 4 15 10 15 5 0 17 14
26 32 13 25 14 36 5 50 -12 19 -9 30 18 61 19 22 24 126 11 217 -5 36 -14 110
-20 165 -23 197 -114 505 -179 598 -69 100 -129 139 -117 75 l6 -33 -21 25
c-11 14 -38 44 -60 68 -21 24 -39 47 -39 52 0 10 -183 235 -244 300 -61 64
-156 150 -191 172 -16 10 -44 18 -62 18 -27 0 -47 17 -145 118 -63 64 -146
151 -184 192 -153 166 -332 340 -378 369 -34 21 -63 31 -88 31 -35 0 -40 -4
-54 -36z"/>
</g>
</svg>
